<svg width="279" height="294" fill="none" xmlns="http://www.w3.org/2000/svg"><path d="M62 2.5h155c14.684 0 25.446.005 33.682 1.113 8.165 1.097 13.473 3.237 17.471 7.235 3.997 3.997 6.137 9.305 7.234 17.47C276.495 36.554 276.5 47.316 276.5 62v170c0 14.684-.005 25.446-1.113 33.682-1.097 8.165-3.237 13.473-7.234 17.471-3.998 3.997-9.306 6.137-17.471 7.234-8.236 1.108-18.998 1.113-33.682 1.113H62c-14.684 0-25.446-.005-33.682-1.113-8.165-1.097-13.473-3.237-17.47-7.234-3.998-3.998-6.138-9.306-7.235-17.471C2.505 257.446 2.5 246.684 2.5 232V62c0-14.684.005-25.446 1.113-33.682 1.097-8.165 3.237-13.473 7.235-17.47 3.997-3.998 9.305-6.138 17.47-7.235C36.554 2.505 47.316 2.5 62 2.5Z" fill="#000" stroke="#D1A648" stroke-width="5"/></svg>